<svg xmlns="http://www.w3.org/2000/svg" viewBox="0 0 617.69 411.8"><defs><style>.cls-1{fill:#ff4365;}</style></defs><title>Simbolo_Color_SVG_(RGB)</title><g id="Layer_2" data-name="Layer 2"><g id="Layer_1-2" data-name="Layer 1"><path class="cls-1" d="M288.27,411.8h-41.2A164.71,164.71,0,0,1,82.37,247.07l0-82.37A205.47,205.47,0,0,0,0,0H41.17A164.71,164.71,0,0,1,205.9,164.7v82.37A205.63,205.63,0,0,0,288.27,411.8Z"/><path class="cls-1" d="M617.69,411.8h-41.2a164.71,164.71,0,0,1-164.7-164.73l0-82.37A205.47,205.47,0,0,0,329.42,0h41.17A164.71,164.71,0,0,1,535.32,164.7v82.37A205.63,205.63,0,0,0,617.69,411.8Z"/><path class="cls-1" d="M453,411.8h-41.2a164.71,164.71,0,0,1-164.7-164.73l0-82.37A205.47,205.47,0,0,0,164.71,0h41.17A164.71,164.71,0,0,1,370.61,164.7v82.37A205.63,205.63,0,0,0,453,411.8Z"/></g></g></svg>